<svg width="818" height="651" viewBox="0 0 818 651" fill="none" xmlns="http://www.w3.org/2000/svg">
<circle cx="225.5" cy="142.5" r="7.5" fill="#5100FD"/>
<circle cx="502.5" cy="394.5" r="7.5" fill="#D9D9D9"/>
<circle cx="160.5" cy="72.5" r="7.5" fill="#D9D9D9"/>
<circle cx="178.5" cy="72.5" r="7.5" fill="#D9D9D9"/>
<circle cx="171.5" cy="90.5" r="7.5" fill="#D9D9D9"/>
<circle cx="189.5" cy="90.5" r="7.5" fill="#D9D9D9"/>
<circle cx="207.5" cy="90.5" r="7.5" fill="#D9D9D9"/>
<circle cx="160.5" cy="106.5" r="7.5" fill="#D9D9D9"/>
<circle cx="178.5" cy="106.5" r="7.5" fill="#D9D9D9"/>
<circle cx="196.5" cy="106.5" r="7.5" fill="#D9D9D9"/>
<circle cx="178.5" cy="124.5" r="7.5" fill="#D9D9D9"/>
<circle cx="196.5" cy="124.5" r="7.5" fill="#D9D9D9"/>
<circle cx="214.5" cy="106.5" r="7.5" fill="#D9D9D9"/>
<circle cx="189.5" cy="142.5" r="7.5" fill="#D9D9D9"/>
<circle cx="214.5" cy="124.5" r="7.5" fill="#D9D9D9"/>
<circle cx="207.5" cy="160.5" r="7.5" fill="#D9D9D9"/>
<circle cx="207.5" cy="142.5" r="7.5" fill="#D9D9D9"/>
<circle cx="225.5" cy="160.5" r="7.5" fill="#D9D9D9"/>
<circle cx="207.5" cy="178.5" r="7.5" fill="#D9D9D9"/>
<circle cx="225.5" cy="178.5" r="7.5" fill="#D9D9D9"/>
<circle cx="244.5" cy="160.5" r="7.5" fill="#D9D9D9"/>
<circle cx="244.5" cy="178.5" r="7.5" fill="#D9D9D9"/>
<circle cx="262.5" cy="178.5" r="7.5" fill="#D9D9D9"/>
<circle cx="225.5" cy="196.5" r="7.5" fill="#D9D9D9"/>
<circle cx="243.5" cy="196.5" r="7.5" fill="#D9D9D9"/>
<circle cx="261.5" cy="196.5" r="7.5" fill="#D9D9D9"/>
<circle cx="279.5" cy="196.5" r="7.5" fill="#D9D9D9"/>
<circle cx="207.5" cy="196.5" r="7.5" fill="#D9D9D9"/>
<circle cx="207.5" cy="214.5" r="7.5" fill="#D9D9D9"/>
<circle cx="225.5" cy="214.5" r="7.5" fill="#D9D9D9"/>
<circle cx="243.5" cy="214.5" r="7.5" fill="#D9D9D9"/>
<circle cx="261.5" cy="214.5" r="7.5" fill="#D9D9D9"/>
<circle cx="279.5" cy="214.5" r="7.5" fill="#D9D9D9"/>
<circle cx="297.5" cy="214.5" r="7.5" fill="#D9D9D9"/>
<circle cx="315.5" cy="214.5" r="7.5" fill="#D9D9D9"/>
<circle cx="189.5" cy="214.5" r="7.5" fill="#D9D9D9"/>
<circle cx="208.5" cy="232.5" r="7.5" fill="#D9D9D9"/>
<circle cx="226.5" cy="232.5" r="7.5" fill="#D9D9D9"/>
<circle cx="244.5" cy="232.5" r="7.5" fill="#D9D9D9"/>
<circle cx="262.5" cy="232.5" r="7.5" fill="#D9D9D9"/>
<circle cx="280.5" cy="232.5" r="7.5" fill="#D9D9D9"/>
<circle cx="298.5" cy="232.5" r="7.5" fill="#D9D9D9"/>
<circle cx="316.5" cy="232.5" r="7.5" fill="#D9D9D9"/>
<circle cx="332.5" cy="225.5" r="7.5" fill="#D9D9D9"/>
<circle cx="350.5" cy="232.5" r="7.5" fill="#D9D9D9"/>
<circle cx="368.5" cy="232.5" r="7.5" fill="#D9D9D9"/>
<circle cx="365.5" cy="250.5" r="7.5" fill="#D9D9D9"/>
<circle cx="383.5" cy="250.5" r="7.5" fill="#D9D9D9"/>
<circle cx="376.5" cy="268.5" r="7.5" fill="#D9D9D9"/>
<circle cx="394.5" cy="268.5" r="7.5" fill="#D9D9D9"/>
<circle cx="376.5" cy="286.5" r="7.5" fill="#D9D9D9"/>
<circle cx="394.5" cy="286.5" r="7.5" fill="#D9D9D9"/>
<circle cx="412.5" cy="286.5" r="7.5" fill="#D9D9D9"/>
<circle cx="376.5" cy="304.5" r="7.5" fill="#D9D9D9"/>
<circle cx="412.5" cy="304.5" r="7.5" fill="#D9D9D9"/>
<circle cx="430.5" cy="304.5" r="7.5" fill="#D9D9D9"/>
<circle cx="412.5" cy="322.5" r="7.5" fill="#D9D9D9"/>
<circle cx="430.5" cy="322.5" r="7.5" fill="#D9D9D9"/>
<circle cx="448.5" cy="322.5" r="7.5" fill="#D9D9D9"/>
<circle cx="412.5" cy="340.5" r="7.5" fill="#D9D9D9"/>
<circle cx="412.5" cy="358.5" r="7.5" fill="#D9D9D9"/>
<circle cx="430.5" cy="358.5" r="7.5" fill="#D9D9D9"/>
<circle cx="448.5" cy="358.5" r="7.5" fill="#D9D9D9"/>
<circle cx="466.5" cy="358.5" r="7.5" fill="#D9D9D9"/>
<circle cx="484.5" cy="358.5" r="7.5" fill="#D9D9D9"/>
<circle cx="412.5" cy="376.5" r="7.5" fill="#D9D9D9"/>
<circle cx="430.5" cy="376.5" r="7.5" fill="#D9D9D9"/>
<circle cx="448.5" cy="376.5" r="7.5" fill="#D9D9D9"/>
<circle cx="466.5" cy="376.5" r="7.5" fill="#D9D9D9"/>
<circle cx="484.5" cy="376.5" r="7.5" fill="#D9D9D9"/>
<circle cx="502.5" cy="376.5" r="7.5" fill="#D9D9D9"/>
<circle cx="412.5" cy="394.5" r="7.5" fill="#D9D9D9"/>
<circle cx="430.5" cy="394.5" r="7.5" fill="#D9D9D9"/>
<circle cx="448.5" cy="394.5" r="7.5" fill="#D9D9D9"/>
<circle cx="466.5" cy="394.5" r="7.5" fill="#D9D9D9"/>
<circle cx="484.5" cy="394.5" r="7.5" fill="#D9D9D9"/>
<circle cx="502.5" cy="394.5" r="7.5" fill="#D9D9D9"/>
<circle cx="520.5" cy="394.5" r="7.5" fill="#D9D9D9"/>
<circle cx="412.5" cy="412.5" r="7.5" fill="#D9D9D9"/>
<circle cx="430.5" cy="412.5" r="7.5" fill="#D9D9D9"/>
<circle cx="448.5" cy="412.5" r="7.5" fill="#D9D9D9"/>
<circle cx="466.5" cy="412.5" r="7.5" fill="#D9D9D9"/>
<circle cx="484.5" cy="412.5" r="7.5" fill="#D9D9D9"/>
<circle cx="502.5" cy="412.5" r="7.5" fill="#D9D9D9"/>
<circle cx="520.5" cy="412.5" r="7.5" fill="#D9D9D9"/>
<circle cx="412.5" cy="430.5" r="7.5" fill="#D9D9D9"/>
<circle cx="430.5" cy="430.5" r="7.5" fill="#D9D9D9"/>
<circle cx="448.5" cy="430.5" r="7.5" fill="#D9D9D9"/>
<circle cx="466.5" cy="430.5" r="7.5" fill="#D9D9D9"/>
<circle cx="484.5" cy="430.5" r="7.5" fill="#D9D9D9"/>
<circle cx="502.5" cy="430.5" r="7.5" fill="#D9D9D9"/>
<circle cx="520.5" cy="430.5" r="7.5" fill="#D9D9D9"/>
<circle cx="412.5" cy="448.5" r="7.5" fill="#D9D9D9"/>
<circle cx="430.5" cy="448.5" r="7.5" fill="#D9D9D9"/>
<circle cx="448.5" cy="448.5" r="7.5" fill="#D9D9D9"/>
<circle cx="466.5" cy="448.5" r="7.5" fill="#D9D9D9"/>
<circle cx="484.5" cy="448.5" r="7.5" fill="#D9D9D9"/>
<circle cx="502.5" cy="448.5" r="7.5" fill="#D9D9D9"/>
<circle cx="520.5" cy="448.5" r="7.5" fill="#D9D9D9"/>
<circle cx="322.5" cy="430.5" r="7.5" fill="#D9D9D9"/>
<circle cx="340.5" cy="430.5" r="7.5" fill="#D9D9D9"/>
<circle cx="358.5" cy="430.5" r="7.5" fill="#D9D9D9"/>
<circle cx="376.5" cy="430.5" r="7.5" fill="#D9D9D9"/>
<circle cx="394.5" cy="430.5" r="7.5" fill="#D9D9D9"/>
<circle cx="322.5" cy="448.5" r="7.5" fill="#D9D9D9"/>
<circle cx="340.5" cy="448.5" r="7.5" fill="#D9D9D9"/>
<circle cx="358.5" cy="448.5" r="7.5" fill="#D9D9D9"/>
<circle cx="376.5" cy="448.5" r="7.5" fill="#D9D9D9"/>
<circle cx="394.5" cy="448.5" r="7.5" fill="#D9D9D9"/>
<circle cx="538.5" cy="430.5" r="7.5" fill="#D9D9D9"/>
<circle cx="556.5" cy="430.5" r="7.5" fill="#D9D9D9"/>
<circle cx="574.5" cy="430.5" r="7.5" fill="#D9D9D9"/>
<circle cx="538.5" cy="448.5" r="7.5" fill="#D9D9D9"/>
<circle cx="556.5" cy="448.5" r="7.5" fill="#D9D9D9"/>
<circle cx="574.5" cy="448.5" r="7.5" fill="#D9D9D9"/>
<circle cx="592.5" cy="448.5" r="7.5" fill="#D9D9D9"/>
<circle cx="610.5" cy="448.5" r="7.5" fill="#D9D9D9"/>
<circle cx="412.5" cy="466.5" r="7.5" fill="#D9D9D9"/>
<circle cx="430.5" cy="466.5" r="7.5" fill="#D9D9D9"/>
<circle cx="448.5" cy="466.5" r="7.5" fill="#D9D9D9"/>
<circle cx="466.5" cy="466.5" r="7.5" fill="#D9D9D9"/>
<circle cx="484.5" cy="466.5" r="7.5" fill="#D9D9D9"/>
<circle cx="502.5" cy="466.5" r="7.5" fill="#D9D9D9"/>
<circle cx="520.5" cy="466.5" r="7.5" fill="#D9D9D9"/>
<circle cx="538.5" cy="466.5" r="7.5" fill="#D9D9D9"/>
<circle cx="556.5" cy="466.5" r="7.5" fill="#D9D9D9"/>
<circle cx="574.5" cy="484.5" r="7.5" fill="#D9D9D9"/>
<circle cx="574.5" cy="466.5" r="7.5" fill="#D9D9D9"/>
<circle cx="592.5" cy="484.5" r="7.5" fill="#D9D9D9"/>
<circle cx="574.5" cy="538.5" r="7.5" fill="#D9D9D9"/>
<circle cx="592.5" cy="538.5" r="7.5" fill="#D9D9D9"/>
<circle cx="610.5" cy="538.5" r="7.5" fill="#D9D9D9"/>
<circle cx="592.5" cy="556.5" r="7.5" fill="#D9D9D9"/>
<circle cx="610.5" cy="556.5" r="7.5" fill="#D9D9D9"/>
<circle cx="628.5" cy="556.5" r="7.5" fill="#D9D9D9"/>
<circle cx="610.5" cy="574.5" r="7.5" fill="#D9D9D9"/>
<circle cx="628.5" cy="574.5" r="7.5" fill="#D9D9D9"/>
<circle cx="268.5" cy="520.5" r="7.5" fill="#D9D9D9"/>
<circle cx="268.5" cy="538.5" r="7.5" fill="#D9D9D9"/>
<circle cx="268.5" cy="556.5" r="7.5" fill="#D9D9D9"/>
<circle cx="250.5" cy="520.5" r="7.5" fill="#D9D9D9"/>
<circle cx="250.5" cy="538.5" r="7.5" fill="#D9D9D9"/>
<circle cx="250.5" cy="556.5" r="7.5" fill="#D9D9D9"/>
<circle cx="232.5" cy="528.5" r="7.5" fill="#D9D9D9"/>
<circle cx="232.5" cy="546.5" r="7.5" fill="#D9D9D9"/>
<circle cx="592.5" cy="466.5" r="7.5" fill="#D9D9D9"/>
<circle cx="322.5" cy="466.5" r="7.5" fill="#D9D9D9"/>
<circle cx="340.5" cy="466.5" r="7.5" fill="#D9D9D9"/>
<circle cx="358.5" cy="466.5" r="7.5" fill="#D9D9D9"/>
<circle cx="376.5" cy="466.5" r="7.5" fill="#D9D9D9"/>
<circle cx="394.5" cy="466.5" r="7.5" fill="#D9D9D9"/>
<circle cx="322.5" cy="484.5" r="7.5" fill="#D9D9D9"/>
<circle cx="340.5" cy="484.5" r="7.5" fill="#D9D9D9"/>
<circle cx="358.5" cy="484.5" r="7.5" fill="#D9D9D9"/>
<circle cx="376.5" cy="484.5" r="7.5" fill="#D9D9D9"/>
<circle cx="394.5" cy="484.5" r="7.5" fill="#D9D9D9"/>
<circle cx="412.5" cy="484.5" r="7.5" fill="#D9D9D9"/>
<circle cx="430.5" cy="484.5" r="7.5" fill="#D9D9D9"/>
<circle cx="448.5" cy="484.5" r="7.5" fill="#D9D9D9"/>
<circle cx="466.5" cy="484.5" r="7.5" fill="#D9D9D9"/>
<circle cx="484.5" cy="484.5" r="7.5" fill="#D9D9D9"/>
<circle cx="502.5" cy="484.5" r="7.5" fill="#D9D9D9"/>
<circle cx="520.5" cy="484.5" r="7.5" fill="#D9D9D9"/>
<circle cx="538.5" cy="484.5" r="7.5" fill="#D9D9D9"/>
<circle cx="556.5" cy="484.5" r="7.5" fill="#D9D9D9"/>
<circle cx="412.5" cy="502.5" r="7.5" fill="#D9D9D9"/>
<circle cx="430.5" cy="502.5" r="7.5" fill="#D9D9D9"/>
<circle cx="448.5" cy="502.5" r="7.5" fill="#D9D9D9"/>
<circle cx="466.5" cy="502.5" r="7.5" fill="#D9D9D9"/>
<circle cx="484.5" cy="502.5" r="7.5" fill="#D9D9D9"/>
<circle cx="502.5" cy="502.5" r="7.5" fill="#D9D9D9"/>
<circle cx="520.5" cy="502.5" r="7.5" fill="#D9D9D9"/>
<circle cx="538.5" cy="502.5" r="7.5" fill="#D9D9D9"/>
<circle cx="556.5" cy="502.5" r="7.5" fill="#D9D9D9"/>
<circle cx="574.5" cy="502.5" r="7.5" fill="#D9D9D9"/>
<circle cx="592.5" cy="502.5" r="7.5" fill="#D9D9D9"/>
<circle cx="610.5" cy="502.5" r="7.5" fill="#D9D9D9"/>
<circle cx="286.5" cy="502.5" r="7.5" fill="#D9D9D9"/>
<circle cx="304.5" cy="502.5" r="7.5" fill="#D9D9D9"/>
<circle cx="322.5" cy="502.5" r="7.5" fill="#D9D9D9"/>
<circle cx="340.5" cy="502.5" r="7.5" fill="#D9D9D9"/>
<circle cx="358.5" cy="502.5" r="7.5" fill="#D9D9D9"/>
<circle cx="376.5" cy="502.5" r="7.5" fill="#D9D9D9"/>
<circle cx="394.5" cy="502.5" r="7.5" fill="#D9D9D9"/>
<circle cx="286.5" cy="520.5" r="7.5" fill="#D9D9D9"/>
<circle cx="304.5" cy="520.5" r="7.5" fill="#D9D9D9"/>
<circle cx="322.5" cy="520.5" r="7.5" fill="#D9D9D9"/>
<circle cx="340.5" cy="520.5" r="7.5" fill="#D9D9D9"/>
<circle cx="358.5" cy="520.5" r="7.5" fill="#D9D9D9"/>
<circle cx="376.5" cy="520.5" r="7.5" fill="#D9D9D9"/>
<circle cx="394.5" cy="520.5" r="7.5" fill="#D9D9D9"/>
<circle cx="412.5" cy="520.5" r="7.5" fill="#D9D9D9"/>
<circle cx="430.5" cy="520.5" r="7.5" fill="#D9D9D9"/>
<circle cx="448.5" cy="520.5" r="7.5" fill="#D9D9D9"/>
<circle cx="466.5" cy="520.5" r="7.5" fill="#D9D9D9"/>
<circle cx="484.5" cy="520.5" r="7.5" fill="#D9D9D9"/>
<circle cx="502.5" cy="520.5" r="7.5" fill="#D9D9D9"/>
<circle cx="520.5" cy="520.5" r="7.5" fill="#D9D9D9"/>
<circle cx="538.5" cy="520.5" r="7.5" fill="#D9D9D9"/>
<circle cx="556.5" cy="520.5" r="7.5" fill="#D9D9D9"/>
<circle cx="574.5" cy="520.5" r="7.5" fill="#D9D9D9"/>
<circle cx="592.5" cy="520.5" r="7.5" fill="#D9D9D9"/>
<circle cx="610.5" cy="520.5" r="7.5" fill="#D9D9D9"/>
<circle cx="304.5" cy="412.5" r="7.5" fill="#D9D9D9"/>
<circle cx="322.5" cy="412.5" r="7.5" fill="#D9D9D9"/>
<circle cx="358.5" cy="412.5" r="7.5" fill="#D9D9D9"/>
<circle cx="376.5" cy="412.5" r="7.5" fill="#D9D9D9"/>
<circle cx="394.5" cy="412.5" r="7.5" fill="#D9D9D9"/>
<circle cx="304.5" cy="394.5" r="7.5" fill="#D9D9D9"/>
<circle cx="322.5" cy="394.5" r="7.5" fill="#D9D9D9"/>
<circle cx="358.5" cy="394.5" r="7.5" fill="#D9D9D9"/>
<circle cx="376.5" cy="394.5" r="7.5" fill="#D9D9D9"/>
<circle cx="286.5" cy="376.5" r="7.5" fill="#D9D9D9"/>
<circle cx="304.5" cy="376.5" r="7.5" fill="#D9D9D9"/>
<circle cx="322.5" cy="376.5" r="7.5" fill="#D9D9D9"/>
<circle cx="286.5" cy="358.5" r="7.5" fill="#D9D9D9"/>
<circle cx="304.5" cy="358.5" r="7.5" fill="#D9D9D9"/>
<circle cx="322.5" cy="358.5" r="7.5" fill="#D9D9D9"/>
<circle cx="340.5" cy="358.5" r="7.5" fill="#D9D9D9"/>
<circle cx="286.5" cy="340.5" r="7.5" fill="#D9D9D9"/>
<circle cx="304.5" cy="340.5" r="7.5" fill="#D9D9D9"/>
<circle cx="322.5" cy="340.5" r="7.5" fill="#D9D9D9"/>
<circle cx="340.5" cy="340.5" r="7.5" fill="#D9D9D9"/>
<circle cx="286.5" cy="538.5" r="7.5" fill="#D9D9D9"/>
<circle cx="304.5" cy="538.5" r="7.5" fill="#D9D9D9"/>
<circle cx="340.5" cy="538.5" r="7.5" fill="#D9D9D9"/>
<circle cx="358.5" cy="538.5" r="7.5" fill="#D9D9D9"/>
<circle cx="376.5" cy="538.5" r="7.5" fill="#D9D9D9"/>
<circle cx="286.5" cy="556.5" r="7.5" fill="#D9D9D9"/>
<circle cx="322.5" cy="556.5" r="7.5" fill="#D9D9D9"/>
<circle cx="340.5" cy="556.5" r="7.5" fill="#D9D9D9"/>
<circle cx="358.5" cy="556.5" r="7.5" fill="#D9D9D9"/>
<circle cx="412.5" cy="430.5" r="7.5" fill="#D9D9D9"/>
<circle cx="430.5" cy="430.5" r="7.5" fill="#D9D9D9"/>
<circle cx="448.5" cy="430.5" r="7.5" fill="#D9D9D9"/>
<circle cx="466.5" cy="430.5" r="7.5" fill="#D9D9D9"/>
<circle cx="484.5" cy="430.5" r="7.5" fill="#D9D9D9"/>
<circle cx="502.5" cy="430.5" r="7.5" fill="#D9D9D9"/>
<circle cx="520.5" cy="430.5" r="7.5" fill="#D9D9D9"/>
<circle cx="430.5" cy="340.5" r="7.5" fill="#D9D9D9"/>
<circle cx="448.5" cy="340.5" r="7.5" fill="#D9D9D9"/>
<circle cx="466.5" cy="340.5" r="7.5" fill="#D9D9D9"/>
<circle cx="190.5" cy="232.5" r="7.5" fill="#D9D9D9"/>
<circle cx="189.5" cy="250.5" r="7.5" fill="#D9D9D9"/>
<circle cx="207.5" cy="250.5" r="7.5" fill="#D9D9D9"/>
<circle cx="225.5" cy="250.5" r="7.5" fill="#D9D9D9"/>
<circle cx="196.5" cy="72.5" r="7.5" fill="#D9D9D9"/>
<circle cx="153.5" cy="90.5" r="7.5" fill="#D9D9D9"/>
<circle cx="243.5" cy="250.5" r="7.5" fill="#D9D9D9"/>
<circle cx="261.5" cy="250.5" r="7.5" fill="#D9D9D9"/>
<circle cx="261.5" cy="268.5" r="7.5" fill="#D9D9D9"/>
<circle cx="279.5" cy="268.5" r="7.5" fill="#D9D9D9"/>
<circle cx="297.5" cy="268.5" r="7.5" fill="#D9D9D9"/>
<circle cx="261.5" cy="286.5" r="7.5" fill="#D9D9D9"/>
<circle cx="279.5" cy="286.5" r="7.5" fill="#D9D9D9"/>
<circle cx="304.5" cy="286.5" r="7.5" fill="#D9D9D9"/>
<circle cx="261.5" cy="304.5" r="7.5" fill="#D9D9D9"/>
<circle cx="279.5" cy="304.5" r="7.5" fill="#D9D9D9"/>
<circle cx="243.5" cy="304.5" r="7.5" fill="#D9D9D9"/>
<circle cx="243.5" cy="321.5" r="7.5" fill="#D9D9D9"/>
<circle cx="279.5" cy="250.5" r="7.5" fill="#D9D9D9"/>
<circle cx="189.5" cy="268.5" r="7.5" fill="#D9D9D9"/>
<circle cx="171.5" cy="268.5" r="7.5" fill="#D9D9D9"/>
<circle cx="207.5" cy="268.5" r="7.5" fill="#D9D9D9"/>
<circle cx="171.5" cy="285.5" r="7.5" fill="#D9D9D9"/>
<circle cx="189.5" cy="285.5" r="7.5" fill="#D9D9D9"/>
</svg>
