<svg width="642" height="642" viewBox="0 0 642 642" fill="none" xmlns="http://www.w3.org/2000/svg">
<g clip-path="url(#clip0_101_2)">
<path d="M-338.144 314C-322.897 311.121 -264.785 314.852 -246.658 296.725C-228.531 278.598 -247.509 223.365 -229.382 205.238C-211.255 187.111 -156.023 206.09 -137.896 187.963C-119.769 169.836 -138.747 114.603 -120.62 96.4763C-102.493 78.3493 -47.2606 97.3278 -29.1336 79.2008C-11.0066 61.0738 -29.9851 5.84121 -11.8581 -12.2858C6.26892 -30.4128 61.5015 -11.4343 79.6285 -29.5613C97.7555 -47.6883 78.777 -102.921 96.904 -121.048C115.031 -139.175 170.264 -120.196 188.391 -138.323C206.518 -156.45 187.539 -211.683 205.666 -229.81C223.793 -247.937 279.026 -228.958 297.153 -247.085C315.28 -265.212 311.549 -323.324 314.428 -338.572" stroke="white" stroke-width="3" stroke-linecap="round" stroke-linejoin="round"/>
<path d="M-301.039 351.106C-285.791 348.227 -227.679 351.957 -209.552 333.83C-191.425 315.703 -210.404 260.471 -192.277 242.344C-174.15 224.217 -118.917 243.195 -100.79 225.068C-82.663 206.941 -101.642 151.709 -83.5146 133.582C-65.3876 115.455 -10.155 134.433 7.97203 116.306C26.099 98.1793 7.12049 42.9467 25.2475 24.8197C43.3745 6.69272 98.6071 25.6713 116.734 7.54426C134.861 -10.5827 115.883 -65.8153 134.01 -83.9423C152.137 -102.069 207.369 -83.0908 225.496 -101.218C243.623 -119.345 224.645 -174.577 242.772 -192.704C260.899 -210.831 316.131 -191.853 334.258 -209.98C352.385 -228.107 348.654 -286.219 351.534 -301.466" stroke="white" stroke-width="3" stroke-linecap="round" stroke-linejoin="round"/>
<path d="M-263.933 388.211C-248.685 385.332 -190.574 389.063 -172.447 370.936C-154.32 352.809 -173.298 297.576 -155.171 279.449C-137.044 261.322 -81.8116 280.301 -63.6846 262.174C-45.5576 244.047 -64.5361 188.814 -46.4091 170.687C-28.2821 152.56 26.9505 171.539 45.0775 153.412C63.2045 135.285 44.226 80.0523 62.353 61.9253C80.48 43.7983 135.713 62.7768 153.84 44.6498C171.967 26.5228 152.988 -28.7098 171.115 -46.8368C189.242 -64.9638 244.475 -45.9852 262.602 -64.1122C280.729 -82.2393 261.75 -137.472 279.877 -155.599C298.004 -173.726 353.237 -154.747 371.364 -172.874C389.491 -191.001 385.76 -249.113 388.639 -264.361" stroke="white" stroke-width="3" stroke-linecap="round" stroke-linejoin="round"/>
<path d="M-226.828 425.317C-211.58 422.438 -153.468 426.169 -135.341 408.042C-117.214 389.915 -136.193 334.682 -118.066 316.555C-99.9385 298.428 -44.7059 317.407 -26.5789 299.28C-8.45191 281.153 -27.4305 225.92 -9.30345 207.793C8.82356 189.666 64.0561 208.644 82.1831 190.517C100.31 172.39 81.3316 117.158 99.4586 99.0309C117.586 80.9039 172.818 99.8824 190.945 81.7554C209.072 63.6284 190.094 8.39583 208.221 -9.73118C226.348 -27.8582 281.58 -8.87964 299.707 -27.0067C317.834 -45.1337 298.856 -100.366 316.983 -118.493C335.11 -136.62 390.342 -117.642 408.469 -135.769C426.596 -153.896 422.866 -212.008 425.745 -227.255" stroke="white" stroke-width="3" stroke-linecap="round" stroke-linejoin="round"/>
<path d="M-189.722 462.423C-174.474 459.543 -116.363 463.274 -98.2355 445.147C-80.1085 427.02 -99.0871 371.788 -80.96 353.661C-62.833 335.534 -7.60046 354.512 10.5266 336.385C28.6536 318.258 9.67501 263.025 27.802 244.898C45.929 226.771 101.162 245.75 119.289 227.623C137.416 209.496 118.437 154.263 136.564 136.136C154.691 118.009 209.924 136.988 228.051 118.861C246.178 100.734 227.199 45.5014 245.326 27.3743C263.453 9.24734 318.686 28.2259 336.813 10.0989C354.94 -8.02813 335.961 -63.2607 354.088 -81.3877C372.215 -99.5147 427.448 -80.5362 445.575 -98.6632C463.702 -116.79 459.971 -174.902 462.85 -190.15" stroke="white" stroke-width="3" stroke-linecap="round" stroke-linejoin="round"/>
<path d="M-152.616 499.528C-137.369 496.649 -79.2568 500.38 -61.1298 482.253C-43.0028 464.126 -61.9813 408.893 -43.8543 390.766C-25.7273 372.639 29.5053 391.618 47.6323 373.491C65.7593 355.364 46.7807 300.131 64.9077 282.004C83.0347 263.877 138.267 282.856 156.394 264.729C174.521 246.602 155.543 191.369 173.67 173.242C191.797 155.115 247.029 174.094 265.156 155.967C283.283 137.839 264.305 82.6069 282.432 64.4799C300.559 46.3529 355.791 65.3314 373.918 47.2044C392.045 29.0774 373.067 -26.1551 391.194 -44.2822C409.321 -62.4092 464.554 -43.4306 482.681 -61.5576C500.808 -79.6846 497.077 -137.796 499.956 -153.044" stroke="white" stroke-width="3" stroke-linecap="round" stroke-linejoin="round"/>
<path d="M-115.511 536.634C-100.263 533.754 -42.1513 537.485 -24.0243 519.358C-5.89732 501.231 -24.8759 445.999 -6.74886 427.872C11.3781 409.745 66.6107 428.723 84.7377 410.596C102.865 392.469 83.8862 337.237 102.013 319.11C120.14 300.983 175.373 319.961 193.5 301.834C211.627 283.707 192.648 228.475 210.775 210.348C228.902 192.221 284.135 211.199 302.262 193.072C320.389 174.945 301.41 119.712 319.537 101.585C337.664 83.4585 392.897 102.437 411.024 84.31C429.151 66.183 410.172 10.9504 428.299 -7.1766C446.426 -25.3036 501.659 -6.32506 519.786 -24.4521C537.913 -42.5791 534.182 -100.691 537.061 -115.939" stroke="white" stroke-width="3" stroke-linecap="round" stroke-linejoin="round"/>
<path d="M-78.4054 573.739C-63.1576 570.86 -5.04581 574.591 13.0812 556.464C31.2082 538.337 12.2297 483.104 30.3567 464.977C48.4837 446.85 103.716 465.829 121.843 447.702C139.97 429.575 120.992 374.342 139.119 356.215C157.246 338.088 212.478 357.067 230.605 338.94C248.732 320.813 229.754 265.58 247.881 247.453C266.008 229.326 321.24 248.305 339.367 230.178C357.494 212.051 338.516 156.818 356.643 138.691C374.77 120.564 430.002 139.543 448.129 121.416C466.256 103.289 447.278 48.056 465.405 29.929C483.532 11.802 538.765 30.7806 556.892 12.6536C575.019 -5.47346 571.288 -63.5853 574.167 -78.833" stroke="white" stroke-width="3" stroke-linecap="round" stroke-linejoin="round"/>
<path d="M-41.2998 610.845C-26.052 607.966 32.0598 611.696 50.1868 593.569C68.3138 575.442 49.3353 520.21 67.4623 502.083C85.5893 483.956 140.822 502.934 158.949 484.807C177.076 466.68 158.097 411.448 176.224 393.321C194.351 375.194 249.584 394.172 267.711 376.045C285.838 357.918 266.859 302.686 284.986 284.559C303.113 266.432 358.346 285.41 376.473 267.283C394.6 249.156 375.621 193.924 393.748 175.797C411.875 157.67 467.108 176.648 485.235 158.521C503.362 140.394 484.384 85.1616 502.511 67.0346C520.638 48.9076 575.87 67.8861 593.997 49.7591C612.124 31.6321 608.393 -26.4797 611.273 -41.7275" stroke="white" stroke-width="3" stroke-linecap="round" stroke-linejoin="round"/>
<path d="M-4.19427 647.95C11.0535 645.071 69.1653 648.802 87.2923 630.675C105.419 612.548 86.4408 557.315 104.568 539.188C122.695 521.061 177.927 540.04 196.054 521.913C214.181 503.786 195.203 448.553 213.33 430.426C231.457 412.299 286.689 431.278 304.816 413.151C322.943 395.024 303.965 339.791 322.092 321.664C340.219 303.537 395.452 322.516 413.579 304.389C431.706 286.262 412.727 231.029 430.854 212.902C448.981 194.775 504.214 213.754 522.341 195.627C540.468 177.5 521.489 122.267 539.616 104.14C557.743 86.0131 612.976 104.992 631.103 86.8646C649.23 68.7376 645.499 10.6258 648.378 -4.62195" stroke="white" stroke-width="3" stroke-linecap="round" stroke-linejoin="round"/>
<path d="M32.9113 685.056C48.159 682.177 106.271 685.907 124.398 667.78C142.525 649.653 123.546 594.421 141.673 576.294C159.8 558.167 215.033 577.145 233.16 559.018C251.287 540.891 232.308 485.659 250.435 467.532C268.562 449.405 323.795 468.383 341.922 450.256C360.049 432.129 341.07 376.897 359.197 358.77C377.324 340.643 432.557 359.621 450.684 341.494C468.811 323.367 449.833 268.135 467.96 250.008C486.087 231.881 541.319 250.859 559.446 232.732C577.573 214.605 558.595 159.373 576.722 141.246C594.849 123.119 650.081 142.097 668.208 123.97C686.335 105.843 682.604 47.7313 685.484 32.4835" stroke="white" stroke-width="3" stroke-linecap="round" stroke-linejoin="round"/>
<path d="M70.0168 722.161C85.2645 719.282 143.376 723.013 161.503 704.886C179.63 686.759 160.652 631.526 178.779 613.399C196.906 595.272 252.138 614.251 270.265 596.124C288.392 577.997 269.414 522.764 287.541 504.637C305.668 486.51 360.9 505.489 379.028 487.362C397.155 469.235 378.176 414.002 396.303 395.875C414.43 377.748 469.663 396.727 487.79 378.6C505.917 360.473 486.938 305.24 505.065 287.113C523.192 268.986 578.425 287.965 596.552 269.838C614.679 251.711 595.7 196.478 613.827 178.351C631.954 160.224 687.187 179.203 705.314 161.076C723.441 142.949 719.71 84.8369 722.589 69.5891" stroke="white" stroke-width="3" stroke-linecap="round" stroke-linejoin="round"/>
<path d="M107.122 759.267C122.37 756.388 180.482 760.119 198.609 741.992C216.736 723.865 197.758 668.632 215.885 650.505C234.012 632.378 289.244 651.357 307.371 633.229C325.498 615.102 306.52 559.87 324.647 541.743C342.774 523.616 398.006 542.594 416.133 524.467C434.26 506.34 415.282 451.108 433.409 432.981C451.536 414.854 506.768 433.832 524.895 415.705C543.022 397.578 524.044 342.346 542.171 324.219C560.298 306.092 615.53 325.07 633.657 306.943C651.784 288.816 632.806 233.584 650.933 215.457C669.06 197.33 724.292 216.308 742.419 198.181C760.546 180.054 756.816 121.942 759.695 106.695" stroke="white" stroke-width="3" stroke-linecap="round" stroke-linejoin="round"/>
<path d="M144.228 796.373C159.476 793.493 217.588 797.224 235.715 779.097C253.842 760.97 234.863 705.738 252.99 687.611C271.117 669.484 326.35 688.462 344.477 670.335C362.604 652.208 343.625 596.975 361.752 578.848C379.879 560.721 435.112 579.7 453.239 561.573C471.366 543.446 452.387 488.213 470.514 470.086C488.641 451.959 543.874 470.938 562.001 452.811C580.128 434.684 561.149 379.451 579.276 361.324C597.403 343.197 652.636 362.176 670.763 344.049C688.89 325.922 669.911 270.689 688.038 252.562C706.165 234.435 761.398 253.414 779.525 235.287C797.652 217.16 793.921 159.048 796.8 143.8" stroke="white" stroke-width="3" stroke-linecap="round" stroke-linejoin="round"/>
<path d="M181.334 833.478C196.581 830.599 254.693 834.33 272.82 816.203C290.947 798.076 271.969 742.843 290.096 724.716C308.223 706.589 363.455 725.568 381.582 707.441C399.709 689.314 380.731 634.081 398.858 615.954C416.985 597.827 472.217 616.806 490.344 598.679C508.471 580.552 489.493 525.319 507.62 507.192C525.747 489.065 580.979 508.044 599.106 489.917C617.233 471.79 598.255 416.557 616.382 398.43C634.509 380.303 689.741 399.282 707.868 381.155C725.995 363.028 707.017 307.795 725.144 289.668C743.271 271.541 798.503 290.52 816.631 272.393C834.758 254.266 831.027 196.154 833.906 180.906" stroke="white" stroke-width="3" stroke-linecap="round" stroke-linejoin="round"/>
<path d="M218.439 870.584C233.687 867.704 291.799 871.435 309.926 853.308C328.053 835.181 309.074 779.949 327.201 761.822C345.328 743.695 400.561 762.673 418.688 744.546C436.815 726.419 417.836 671.187 435.963 653.06C454.09 634.933 509.323 653.911 527.45 635.784C545.577 617.657 526.598 562.425 544.725 544.298C562.852 526.171 618.085 545.149 636.212 527.022C654.339 508.895 635.36 453.662 653.487 435.535C671.614 417.408 726.847 436.387 744.974 418.26C763.101 400.133 744.122 344.9 762.249 326.773C780.376 308.646 835.609 327.625 853.736 309.498C871.863 291.371 868.132 233.259 871.011 218.011" stroke="white" stroke-width="3" stroke-linecap="round" stroke-linejoin="round"/>
<path d="M255.545 907.689C270.792 904.81 328.904 908.541 347.031 890.414C365.158 872.287 346.18 817.054 364.307 798.927C382.434 780.8 437.666 799.779 455.793 781.652C473.92 763.525 454.942 708.292 473.069 690.165C491.196 672.038 546.428 691.017 564.555 672.89C582.682 654.763 563.704 599.53 581.831 581.403C599.958 563.276 655.19 582.255 673.317 564.128C691.444 546.001 672.466 490.768 690.593 472.641C708.72 454.514 763.952 473.493 782.08 455.366C800.207 437.239 781.228 382.006 799.355 363.879C817.482 345.752 872.715 364.731 890.842 346.604C908.969 328.477 905.238 270.365 908.117 255.117" stroke="white" stroke-width="3" stroke-linecap="round" stroke-linejoin="round"/>
<path d="M292.65 944.795C307.898 941.916 366.01 945.646 384.137 927.519C402.264 909.392 383.285 854.16 401.412 836.033C419.539 817.906 474.772 836.884 492.899 818.757C511.026 800.63 492.047 745.398 510.174 727.271C528.301 709.144 583.534 728.122 601.661 709.995C619.788 691.868 600.809 636.636 618.936 618.509C637.063 600.382 692.296 619.36 710.423 601.233C728.55 583.106 709.571 527.874 727.698 509.747C745.825 491.62 801.058 510.598 819.185 492.471C837.312 474.344 818.333 419.112 836.461 400.985C854.588 382.858 909.82 401.836 927.947 383.709C946.074 365.582 942.343 307.47 945.223 292.223" stroke="white" stroke-width="3" stroke-linecap="round" stroke-linejoin="round"/>
</g>
<defs>
<clipPath id="clip0_101_2">
<rect width="642" height="642" fill="white"/>
</clipPath>
</defs>
</svg>
